<svg xmlns="http://www.w3.org/2000/svg" viewBox="0 0 1920 1051" role="img" aria-labelledby="title desc">
  <title id="title">Florida Registry of Interpreters for the Deaf logo</title>
  <desc id="desc">A stylized FRID logo with the state of Florida and the words Florida Registry of Interpreters for the Deaf.</desc>
  <rect width="1920" height="1051" fill="#ffffff"/>

  <path
    d="M305 9 L620 9 C636 9 632 42 665 47 L1012 64 C1044 66 1009 118 1053 119 C1093 120 1049 42 1084 30 L1148 53 L1204 237 L1271 359 C1251 394 1289 439 1322 508 L1358 584 C1390 651 1323 748 1290 779 C1255 812 1211 806 1198 775 C1186 747 1145 747 1131 716 C1119 692 1090 683 1082 662 C1074 638 1052 633 1045 603 C1037 566 1011 560 999 559 C978 557 983 532 965 525 C943 516 927 516 920 495 C910 464 854 405 852 384 C849 358 879 329 854 303 C830 278 806 281 790 254 C773 225 731 218 720 189 C711 164 672 163 651 145 C625 123 584 133 568 149 C549 169 491 178 431 179 C397 180 405 148 398 137 C389 120 351 108 333 92 C310 72 286 73 283 49 C279 30 287 19 305 9 Z"
    fill="#30a36f"
    stroke="#1f1f1f"
    stroke-width="12"
    stroke-linejoin="round"
  />

  <text x="32" y="812" font-family="Arial Black, Impact, Arial, sans-serif" font-size="665" font-weight="900" fill="#1f1d1f">F</text>
  <text x="515" y="812" font-family="Arial Black, Impact, Arial, sans-serif" font-size="665" font-weight="900" fill="#1f1d1f">R</text>
  <text x="1076" y="812" font-family="Georgia, 'Times New Roman', serif" font-size="660" font-weight="700" fill="#ffffff">I</text>
  <text x="1348" y="812" font-family="Arial Black, Impact, Arial, sans-serif" font-size="665" font-weight="900" fill="#1f1d1f">D</text>

  <text
    x="54"
    y="966"
    font-family="Georgia, 'Times New Roman', serif"
    font-size="72"
    font-weight="500"
    letter-spacing="13"
    fill="#1f1d1f"
    textLength="1810"
    lengthAdjust="spacingAndGlyphs"
  >FLORIDA REGISTRY OF INTERPRETERS FOR THE DEAF</text>
</svg>
